<svg width="140" height="140" viewBox="0 0 140 140" fill="none" xmlns="http://www.w3.org/2000/svg">
<circle cx="69.9295" cy="69.9295" r="51.1919" transform="rotate(-30 69.9295 69.9295)" fill="url(#paint0_linear_391_106)"/>
<path d="M64.732 33.4765C64.6311 33.1588 64.4367 32.8287 64.1485 32.4863C63.8597 32.1389 63.4746 31.833 62.9933 31.5689C62.517 31.304 62.0572 31.1567 61.6139 31.1271L61.5696 30.8117C61.9811 30.6517 62.3631 30.4091 62.7156 30.0838C63.0724 29.7529 63.3564 29.376 63.5675 28.9531C63.7823 28.5196 63.9001 28.1048 63.921 27.7087L64.2364 27.6643C64.3167 27.9083 64.4431 28.1535 64.6155 28.3999C64.7873 28.6412 64.9953 28.8673 65.2393 29.078C65.4877 29.2831 65.758 29.4621 66.0501 29.615C66.485 29.8398 66.9141 29.9684 67.3373 30.0007L67.3817 30.3162C67.1141 30.41 66.8445 30.5627 66.573 30.7745C66.3066 30.9856 66.0647 31.2264 65.8475 31.4969C65.6295 31.7624 65.4584 32.0341 65.3341 32.3119C65.1516 32.7205 65.056 33.0939 65.0474 33.4321L64.732 33.4765Z" fill="#191B28"/>
<path d="M55.8276 29.8273L57.7226 35.0072L56.7767 35.3532L53.3304 32.9175L53.2925 32.9314L54.4852 36.1916L53.39 36.5922L51.495 31.4124L52.4561 31.0607L55.8838 33.5004L55.9293 33.4838L54.7375 30.2261L55.8276 29.8273Z" fill="#191B28"/>
<path d="M46.5015 36.6193C46.3966 36.5321 46.2877 36.4661 46.1748 36.4213C46.0608 36.375 45.9433 36.3507 45.8223 36.3483C45.7018 36.3434 45.5789 36.3607 45.4538 36.4001C45.3301 36.4386 45.2059 36.5002 45.0812 36.585C44.848 36.7434 44.6825 36.9406 44.5845 37.1765C44.488 37.4114 44.4659 37.6728 44.5183 37.9607C44.5697 38.2471 44.7033 38.5492 44.9193 38.867C45.1353 39.1847 45.3672 39.4222 45.6151 39.5793C45.863 39.7365 46.1152 39.8137 46.3716 39.8109C46.6271 39.8066 46.8751 39.7227 47.1156 39.5592C47.3339 39.4109 47.494 39.2456 47.596 39.0634C47.6984 38.8787 47.742 38.6874 47.7268 38.4893C47.7131 38.2902 47.6401 38.0934 47.5079 37.8989L47.7236 37.7946L46.5475 38.594L46.054 37.8678L47.9629 36.5704L48.3535 37.1451C48.626 37.546 48.7755 37.9481 48.802 38.3512C48.8275 38.7529 48.7447 39.1326 48.5537 39.4903C48.3617 39.8466 48.0741 40.155 47.691 40.4153C47.2633 40.706 46.8235 40.867 46.3716 40.8985C45.9187 40.9284 45.4831 40.8305 45.0648 40.6046C44.6469 40.3763 44.2745 40.0216 43.9475 39.5404C43.6962 39.1707 43.5256 38.8047 43.4357 38.4425C43.3463 38.0777 43.3303 37.7283 43.3875 37.3941C43.4448 37.06 43.5668 36.7524 43.7535 36.4713C43.9402 36.1903 44.1843 35.9473 44.4858 35.7425C44.7442 35.5669 45.0105 35.4412 45.2847 35.3656C45.5579 35.2884 45.827 35.2596 46.0921 35.2792C46.3587 35.2977 46.6111 35.3639 46.8491 35.4778C47.0862 35.5903 47.297 35.7487 47.4816 35.9532L46.5015 36.6193Z" fill="#191B28"/>
<path d="M38.3523 41.1626L42.3213 44.9927L41.5115 45.8318L37.5425 42.0018L38.3523 41.1626Z" fill="#191B28"/>
<path d="M35.0985 48.3396C34.9044 48.2397 34.7124 48.2256 34.5227 48.2974C34.3329 48.3692 34.1619 48.5227 34.0098 48.7579C33.9064 48.9176 33.8417 49.0672 33.8157 49.2065C33.7882 49.3448 33.7946 49.4687 33.835 49.5782C33.8763 49.6862 33.9467 49.7724 34.0462 49.8368C34.1271 49.8935 34.2107 49.923 34.2969 49.9253C34.384 49.9261 34.4722 49.9072 34.5613 49.8686C34.6489 49.8291 34.7381 49.7756 34.8288 49.7081C34.918 49.6396 35.0066 49.5622 35.0945 49.4759L35.4632 49.1242C35.6392 48.9515 35.8195 48.8051 36.0041 48.6851C36.1887 48.565 36.376 48.4788 36.566 48.4264C36.7561 48.374 36.9476 48.3622 37.1408 48.3909C37.3349 48.4182 37.5289 48.4935 37.7228 48.6168C38.0052 48.8017 38.2041 49.0331 38.3194 49.3109C38.4342 49.5862 38.4621 49.8951 38.403 50.2375C38.3434 50.5775 38.1917 50.9359 37.9478 51.3127C37.7059 51.6866 37.4379 51.9751 37.1439 52.1783C36.8508 52.38 36.5417 52.4858 36.2167 52.4957C35.8911 52.5032 35.5593 52.4029 35.2213 52.1948L35.8343 51.2474C35.9964 51.3374 36.1548 51.3768 36.3096 51.3657C36.4638 51.3522 36.6102 51.2961 36.7488 51.1976C36.8868 51.0966 37.0105 50.9617 37.1197 50.7929C37.227 50.6271 37.2961 50.4675 37.3269 50.3142C37.3586 50.1594 37.3535 50.0203 37.3115 49.8968C37.2694 49.7734 37.1927 49.6756 37.0811 49.6034C36.9771 49.5361 36.8697 49.5104 36.7588 49.5264C36.649 49.5408 36.5311 49.5908 36.4053 49.6761C36.2804 49.76 36.143 49.8732 35.9931 50.0157L35.5402 50.4379C35.1926 50.7669 34.8446 50.9791 34.4963 51.0745C34.148 51.1698 33.8033 51.1061 33.4621 50.8831C33.1807 50.7032 32.9841 50.4701 32.8721 50.1837C32.7611 49.8959 32.7326 49.5813 32.7867 49.2399C32.8409 48.8985 32.9772 48.559 33.1957 48.2214C33.4181 47.8777 33.671 47.6158 33.9544 47.4356C34.2388 47.254 34.532 47.1593 34.8342 47.1517C35.1364 47.1441 35.4269 47.2273 35.7057 47.4013L35.0985 48.3396Z" fill="#191B28"/>
<path d="M33.8611 60.7108L28.6748 58.8334L29.9398 55.3387L30.8438 55.666L29.9757 58.0641L31.2115 58.5115L32.0146 56.2931L32.9186 56.6204L32.1156 58.8387L33.3539 59.287L34.2257 56.8787L35.1297 57.206L33.8611 60.7108Z" fill="#191B28"/>
<path d="M32.9266 67.8159L32.7016 69.7581L27.2226 69.1232L27.4495 67.1649C27.5134 66.6138 27.6781 66.1521 27.9435 65.7798C28.2072 65.4073 28.5556 65.1377 28.9889 64.971C29.4223 64.8025 29.9235 64.7512 30.4924 64.8172C31.0632 64.8833 31.5411 65.048 31.9263 65.3114C32.3117 65.5729 32.5909 65.9171 32.7637 66.3438C32.9368 66.7687 32.9911 67.2594 32.9266 67.8159ZM31.8433 68.4847L31.9285 67.749C31.9682 67.4066 31.9409 67.1115 31.8467 66.8638C31.751 66.6141 31.5815 66.4156 31.3383 66.2681C31.0935 66.1186 30.7669 66.0202 30.3585 65.9729C29.9537 65.926 29.6159 65.9474 29.3452 66.0371C29.0747 66.1251 28.8653 66.2788 28.717 66.4984C28.5686 66.718 28.4746 66.999 28.4349 67.3415L28.3494 68.0798L31.8433 68.4847Z" fill="#191B28"/>
<path d="M30.9336 84.9323L30.007 85.1888L28.7982 80.8232L29.7248 80.5666L30.1754 82.194L34.5644 80.9787L34.872 82.0895L30.483 83.3049L30.9336 84.9323Z" fill="#191B28"/>
<path d="M34.2127 89.1948L34.7901 90.2235C34.6676 90.3169 34.5709 90.4217 34.5001 90.5376C34.4277 90.6544 34.3802 90.7789 34.3576 90.911C34.335 91.0431 34.3375 91.1796 34.3652 91.3206C34.3919 91.46 34.444 91.5986 34.5213 91.7364C34.6611 91.9853 34.8446 92.1674 35.072 92.2827C35.2978 92.3989 35.5567 92.442 35.8487 92.412C36.1391 92.3828 36.4511 92.2746 36.7846 92.0874C37.1274 91.8949 37.3869 91.6823 37.5631 91.4496C37.7384 91.2153 37.8337 90.9724 37.849 90.7209C37.8642 90.4694 37.8038 90.2222 37.6676 89.9796C37.5911 89.8434 37.5023 89.7274 37.4013 89.6318C37.2994 89.5346 37.1885 89.4599 37.0686 89.4078C36.9472 89.3565 36.8197 89.3292 36.6861 89.326C36.5516 89.3212 36.4136 89.3431 36.272 89.3916L35.6993 88.3604C35.935 88.2631 36.1853 88.2101 36.4502 88.2014C36.7126 88.1921 36.9745 88.2314 37.236 88.3193C37.495 88.4066 37.7404 88.5468 37.9724 88.7399C38.2018 88.9323 38.4031 89.1827 38.5763 89.4911C38.8171 89.9201 38.9353 90.3582 38.931 90.8053C38.9258 91.2509 38.7942 91.6748 38.5361 92.0771C38.2771 92.4777 37.8862 92.8248 37.3633 93.1184C36.8388 93.4128 36.3372 93.5646 35.8585 93.5739C35.3799 93.5831 34.9493 93.4727 34.5669 93.2426C34.183 93.0134 33.8723 92.6875 33.635 92.2647C33.4786 91.986 33.3727 91.7057 33.3174 91.4238C33.2613 91.1403 33.2565 90.864 33.3031 90.5949C33.3481 90.3267 33.4461 90.074 33.5972 89.8368C33.7473 89.5981 33.9525 89.3841 34.2127 89.1948Z" fill="#191B28"/>
<path d="M39.5748 99.7157L38.7723 98.8696L41.3711 96.4046C41.6629 96.1278 41.9844 95.9553 42.3354 95.8872C42.6852 95.8177 43.0394 95.8492 43.3978 95.9819C43.755 96.1158 44.0905 96.3482 44.4043 96.6791C44.7194 97.0113 44.9343 97.3592 45.0492 97.723C45.1627 98.0879 45.1756 98.4432 45.0877 98.7889C44.9998 99.1346 44.81 99.4458 44.5182 99.7225L41.9193 102.188L41.1168 101.341L43.6433 98.945C43.7958 98.8005 43.8997 98.6387 43.9553 98.4599C44.0096 98.2797 44.0125 98.0962 43.9641 97.9095C43.9157 97.7228 43.8143 97.5481 43.6598 97.3852C43.5041 97.2211 43.335 97.1106 43.1523 97.0537C42.9684 96.9955 42.7857 96.9894 42.6042 97.0354C42.4214 97.0801 42.2538 97.1747 42.1013 97.3193L39.5748 99.7157Z" fill="#191B28"/>
<path d="M51.9121 102.322L53.5642 103.368L50.6146 108.029L48.9488 106.974C48.48 106.678 48.1355 106.329 47.9152 105.928C47.6941 105.529 47.6024 105.098 47.6402 104.635C47.6765 104.172 47.8478 103.698 48.1541 103.214C48.4614 102.729 48.8172 102.369 49.2216 102.137C49.6245 101.903 50.0557 101.801 50.5152 101.83C50.9731 101.859 51.4387 102.023 51.9121 102.322ZM52.0445 103.589L51.4187 103.193C51.1274 103.008 50.8498 102.905 50.5857 102.882C50.3192 102.86 50.0667 102.927 49.8284 103.082C49.5875 103.237 49.3571 103.489 49.1372 103.836C48.9193 104.181 48.792 104.494 48.7554 104.777C48.7172 105.059 48.7649 105.314 48.8983 105.543C49.0318 105.772 49.2442 105.979 49.5354 106.163L50.1635 106.561L52.0445 103.589Z" fill="#191B28"/>
<path d="M56.9217 107.48C57.1072 106.908 57.3734 106.457 57.7204 106.125C58.0657 105.794 58.4589 105.582 58.8998 105.491C59.3386 105.401 59.7894 105.431 60.2522 105.581C60.7185 105.733 61.1026 105.974 61.4046 106.306C61.7066 106.638 61.9001 107.04 61.9852 107.511C62.0704 107.982 62.0205 108.503 61.8356 109.073C61.6501 109.645 61.3847 110.097 61.0394 110.429C60.6941 110.76 60.3021 110.971 59.8634 111.061C59.4241 111.153 58.9713 111.123 58.505 110.972C58.0422 110.822 57.6598 110.581 57.3578 110.249C57.0535 109.918 56.8589 109.517 56.7738 109.046C56.6869 108.574 56.7363 108.052 56.9217 107.48ZM58.0464 107.845C57.9263 108.215 57.8805 108.546 57.909 108.837C57.9358 109.126 58.0278 109.37 58.1851 109.566C58.3423 109.762 58.5549 109.904 58.8231 109.991C59.0912 110.078 59.3465 110.088 59.589 110.021C59.8315 109.954 60.0495 109.812 60.243 109.593C60.4348 109.374 60.5907 109.079 60.7109 108.708C60.831 108.338 60.8776 108.008 60.8508 107.718C60.8223 107.427 60.7294 107.184 60.5722 106.988C60.415 106.791 60.2023 106.65 59.9342 106.563C59.666 106.476 59.4107 106.466 59.1683 106.532C58.9258 106.599 58.7087 106.742 58.5169 106.961C58.3234 107.18 58.1665 107.474 58.0464 107.845Z" fill="#191B28"/>
<path d="M71.1465 107.142L70.7559 112.644L68.5853 112.49C68.1698 112.461 67.8204 112.361 67.5373 112.192C67.2522 112.024 67.0422 111.799 66.9074 111.518C66.7707 111.238 66.7152 110.916 66.741 110.553C66.7669 110.187 66.8681 109.879 67.0444 109.627C67.2205 109.376 67.4631 109.192 67.7721 109.074C68.0793 108.955 68.4443 108.911 68.8669 108.941L70.3203 109.044L70.2539 109.979L68.9886 109.889C68.7665 109.873 68.5799 109.89 68.4287 109.941C68.2775 109.991 68.1618 110.075 68.0815 110.192C67.9995 110.308 67.952 110.457 67.9392 110.638C67.9262 110.821 67.952 110.977 68.0165 111.108C68.0792 111.238 68.1826 111.341 68.3267 111.416C68.4689 111.493 68.6519 111.539 68.8757 111.555L69.6602 111.611L69.9832 107.06L71.1465 107.142ZM67.9975 109.435L66.8079 106.834L68.092 106.925L69.2521 109.524L67.9975 109.435Z" fill="#191B28"/>
<path d="M79.5744 105.9L80.4485 111.346L78.2999 111.691C77.8869 111.757 77.5223 111.735 77.2063 111.624C76.8905 111.515 76.6341 111.333 76.4369 111.079C76.2383 110.827 76.11 110.521 76.0519 110.159C75.9939 109.797 76.0207 109.466 76.1323 109.164C76.2439 108.863 76.4354 108.611 76.7067 108.409C76.9762 108.208 77.3201 108.073 77.7385 108.006L79.108 107.786L79.2561 108.709L78.0727 108.899C77.8511 108.935 77.6747 109.002 77.5433 109.101C77.4105 109.203 77.3195 109.327 77.2705 109.475C77.2201 109.625 77.2092 109.79 77.2379 109.969C77.2669 110.149 77.3286 110.301 77.4229 110.424C77.5157 110.55 77.6408 110.638 77.7981 110.689C77.9557 110.742 78.1462 110.75 78.3696 110.714L79.146 110.59L78.423 106.085L79.5744 105.9Z" fill="#191B28"/>
<path d="M90.9389 99.9817C91.16 100.231 91.4716 100.454 91.8738 100.65C92.2787 100.851 92.7548 100.974 93.3019 101.02C93.8447 101.069 94.3247 101.017 94.7419 100.864L94.9104 101.135C94.5991 101.448 94.3484 101.824 94.1581 102.265C93.9662 102.712 93.8595 103.172 93.8381 103.644C93.8176 104.127 93.8782 104.554 94.0198 104.925L93.7494 105.093C93.5771 104.903 93.3621 104.73 93.1045 104.575C92.8496 104.424 92.5679 104.301 92.2593 104.208C91.9491 104.121 91.6295 104.067 91.3004 104.046C90.8117 104.017 90.3673 104.073 89.9674 104.215L89.7989 103.945C90.0055 103.751 90.1899 103.502 90.3521 103.198C90.51 102.897 90.6334 102.579 90.7223 102.244C90.8138 101.913 90.86 101.595 90.8609 101.29C90.862 100.843 90.7979 100.463 90.6686 100.15L90.9389 99.9817Z" fill="#191B28"/>
<path d="M98.3658 93.7063L99.7048 92.2815L103.724 96.0588L102.374 97.4954C101.994 97.8996 101.586 98.172 101.151 98.3126C100.717 98.4543 100.277 98.4629 99.8298 98.3383C99.3815 98.215 98.9486 97.9573 98.5312 97.565C98.1126 97.1716 97.8272 96.7543 97.675 96.3132C97.5217 95.8733 97.5028 95.4306 97.6186 94.985C97.7331 94.5407 97.9822 94.1145 98.3658 93.7063ZM99.6343 93.8155L99.1271 94.3552C98.891 94.6064 98.7369 94.8595 98.6648 95.1145C98.5928 95.3721 98.6104 95.6325 98.7176 95.8959C98.8249 96.1619 99.0284 96.4357 99.328 96.7172C99.625 96.9964 99.9089 97.1806 100.18 97.27C100.449 97.3607 100.709 97.3622 100.959 97.2744C101.209 97.1866 101.452 97.0172 101.688 96.766L102.197 96.2243L99.6343 93.8155Z" fill="#191B28"/>
<path d="M103.837 85.0568L104.442 83.9634L108.346 88.2997L107.619 89.6146L101.872 88.6081L102.477 87.5147L106.869 88.3658L106.89 88.3281L103.837 85.0568ZM105.772 86.0381L104.343 88.6208L103.546 88.1801L104.975 85.5974L105.772 86.0381Z" fill="#191B28"/>
<path d="M106.613 76.3027L111.928 77.7789L110.933 81.3599L110.007 81.1025L110.689 78.6451L109.423 78.2934L108.792 80.5666L107.865 80.3092L108.497 78.0361L107.228 77.6836L106.542 80.1514L105.616 79.8941L106.613 76.3027Z" fill="#191B28"/>
<path d="M107.135 68.4031L112.643 68.6944L112.581 69.8589L108.034 69.6184L107.909 71.9797L106.949 71.9289L107.135 68.4031Z" fill="#191B28"/>
<path d="M110.413 56.9395L105.183 58.6904L104.863 57.7353L107.393 54.3578L107.38 54.3194L104.088 55.4215L103.718 54.3157L108.949 52.5647L109.274 53.5352L106.74 56.894L106.755 56.94L110.045 55.8388L110.413 56.9395Z" fill="#191B28"/>
<path d="M103.864 47.4291C103.954 47.3265 104.022 47.2192 104.07 47.1074C104.119 46.9947 104.146 46.8778 104.152 46.7569C104.159 46.6365 104.145 46.5132 104.109 46.3872C104.073 46.2626 104.015 46.1369 103.933 46.0101C103.781 45.7731 103.588 45.6027 103.354 45.4989C103.122 45.3966 102.861 45.3681 102.572 45.4133C102.284 45.4576 101.979 45.5837 101.656 45.7917C101.333 45.9998 101.09 46.2258 100.927 46.4697C100.763 46.7137 100.68 46.9638 100.676 47.2203C100.674 47.4757 100.752 47.7257 100.91 47.9703C101.052 48.1922 101.214 48.3563 101.393 48.4628C101.575 48.5697 101.766 48.6181 101.964 48.6078C102.163 48.599 102.362 48.5309 102.56 48.4035L102.659 48.6218L101.889 47.4262L102.627 46.9509L103.876 48.8913L103.292 49.2675C102.885 49.53 102.479 49.6695 102.075 49.686C101.673 49.7016 101.296 49.6094 100.943 49.4096C100.591 49.2088 100.29 48.9137 100.039 48.5242C99.7595 48.0895 99.6094 47.6459 99.5892 47.1933C99.5704 46.7398 99.6791 46.3068 99.9153 45.8942C100.154 45.4821 100.518 45.1186 101.007 44.8036C101.383 44.5615 101.753 44.4 102.117 44.3192C102.484 44.2388 102.834 44.2314 103.166 44.2969C103.499 44.3625 103.803 44.492 104.08 44.6857C104.356 44.8793 104.593 45.1293 104.79 45.4358C104.959 45.6984 105.078 45.9677 105.147 46.2437C105.218 46.5188 105.24 46.7886 105.214 47.0531C105.189 47.3191 105.116 47.5697 104.996 47.8049C104.878 48.0391 104.714 48.2459 104.505 48.4254L103.864 47.4291Z" fill="#191B28"/>
<path d="M99.5711 39.1776L95.6173 43.0234L94.8042 42.1874L98.758 38.3417L99.5711 39.1776Z" fill="#191B28"/>
<path d="M92.465 35.7104C92.57 35.5189 92.589 35.3274 92.5221 35.1359C92.4552 34.9443 92.3061 34.7694 92.075 34.6113C91.9179 34.5038 91.7701 34.4352 91.6315 34.4057C91.494 34.3746 91.3699 34.3778 91.2594 34.4153C91.1504 34.4539 91.0624 34.522 90.9955 34.6198C90.9367 34.6993 90.9051 34.782 90.9006 34.8681C90.8975 34.9553 90.9141 35.0439 90.9504 35.1339C90.9877 35.2225 91.0388 35.3131 91.104 35.4055C91.1701 35.4964 91.2452 35.587 91.3292 35.6771L91.6713 36.0548C91.8394 36.2351 91.9811 36.4191 92.0963 36.6068C92.2116 36.7944 92.2929 36.9839 92.3404 37.1752C92.3879 37.3665 92.3948 37.5583 92.3611 37.7507C92.3288 37.944 92.2486 38.136 92.1203 38.3267C91.9281 38.6042 91.6917 38.7971 91.411 38.9052C91.1328 39.0129 90.8233 39.0328 90.4825 38.9649C90.1442 38.8965 89.7899 38.7356 89.4194 38.4821C89.052 38.2306 88.7705 37.9553 88.5749 37.6561C88.3808 37.3579 88.283 37.0463 88.2815 36.721C88.2824 36.3954 88.3913 36.0662 88.6079 35.7337L89.5392 36.371C89.4451 36.5307 89.4016 36.6881 89.4087 36.843C89.4183 36.9975 89.4705 37.1453 89.5654 37.2864C89.6628 37.4271 89.7945 37.5542 89.9604 37.6677C90.1234 37.7793 90.2812 37.8524 90.4336 37.8871C90.5876 37.9228 90.7268 37.9213 90.8513 37.8825C90.9757 37.8437 91.0755 37.7694 91.1505 37.6598C91.2205 37.5575 91.2489 37.4508 91.2358 37.3396C91.2242 37.2294 91.1774 37.1103 91.0953 36.9823C91.0146 36.8553 90.905 36.7151 90.7665 36.5615L90.356 36.0978C90.0361 35.7419 89.833 35.3885 89.7466 35.0379C89.6602 34.6872 89.7329 34.3443 89.9646 34.0089C90.1517 33.7323 90.3898 33.5417 90.6789 33.4372C90.9695 33.3336 91.2847 33.3133 91.6246 33.3762C91.9645 33.4391 92.3004 33.5841 92.6323 33.8113C92.9701 34.0424 93.2254 34.302 93.3982 34.59C93.5725 34.8789 93.6595 35.1746 93.6593 35.4769C93.6592 35.7791 93.5685 36.0674 93.3874 36.3416L92.465 35.7104Z" fill="#191B28"/>
<path d="M80.1414 34.1275L82.1709 28.9988L85.6268 30.3664L85.273 31.2604L82.9015 30.3219L82.4179 31.544L84.6116 32.4121L84.2578 33.3061L82.0641 32.438L81.5795 33.6626L83.961 34.605L83.6072 35.499L80.1414 34.1275Z" fill="#191B28"/>
<path d="M73.0633 32.9917L71.1282 32.7118L71.9179 27.253L73.869 27.5352C74.4181 27.6147 74.8749 27.7923 75.2396 28.0682C75.6045 28.3423 75.8641 28.6983 76.0185 29.136C76.1746 29.574 76.2117 30.0765 76.1297 30.6433C76.0474 31.212 75.8693 31.6851 75.5951 32.0627C75.3228 32.4405 74.9709 32.7098 74.5394 32.8706C74.1098 33.0315 73.6178 33.0719 73.0633 32.9917ZM72.4254 31.8899L73.1584 31.9959C73.4996 32.0453 73.7953 32.0264 74.0456 31.9392C74.2979 31.8505 74.5012 31.6867 74.6555 31.4478C74.8118 31.2074 74.9194 30.8837 74.9782 30.4768C75.0366 30.0734 75.0247 29.7352 74.9427 29.4621C74.8624 29.1892 74.7146 28.9755 74.4993 28.821C74.284 28.6665 74.0058 28.5646 73.6646 28.5153L72.929 28.4088L72.4254 31.8899Z" fill="#191B28"/>
<path d="M76.0092 81.0227C73.9617 82.2048 72.0509 82.7961 70.2767 82.7967C68.5537 82.7677 67.2608 82.1833 66.398 81.0435L68.5241 79.4065C68.9595 80.0424 69.7305 80.3139 70.8371 80.2209C71.9141 80.0769 73.1949 79.5763 74.6793 78.7193C77.9553 76.8279 79.1795 75.1656 78.3521 73.7323C77.9974 73.1181 77.3544 72.7727 76.423 72.6962C75.462 72.5685 73.9636 72.7511 71.9277 73.2441L67.3469 74.3532C64.5274 75.0255 61.8849 75.1179 59.4194 74.6304C57.0051 74.1133 55.1035 72.6518 53.7145 70.246C52.6506 68.4033 52.2168 66.4698 52.413 64.4455C52.6605 62.3916 53.4692 60.4233 54.8391 58.5404C56.1794 56.6063 57.9757 54.9891 60.2279 53.6887C63.5039 51.7973 66.7005 51.0097 69.8177 51.3257C72.9349 51.6417 75.3711 52.9651 77.1263 55.296L74.9559 56.8562C73.6281 55.0293 71.7286 54.0444 69.2573 53.9014C66.8372 53.7289 64.2707 54.4258 61.5578 55.9921C58.7425 57.6176 56.8125 59.6532 55.7676 62.0992C54.7228 64.5452 54.8063 66.8175 56.0179 68.9162C57.1114 70.8101 58.5679 71.9143 60.3875 72.2288C62.207 72.5432 64.435 72.383 67.0714 71.7481L72.0036 70.5385C76.4417 69.4777 79.3108 70.0734 80.6112 72.3257C81.4386 73.7589 81.4234 75.2692 80.5653 76.8566C79.729 78.3632 78.2102 79.7519 76.0092 81.0227ZM78.9349 86.0902C75.5566 88.0407 72.2832 88.8727 69.1148 88.5863C65.9976 88.2702 63.5614 86.9468 61.8062 84.6159L63.9323 82.9789C65.3113 84.7763 67.2512 85.772 69.752 85.9662C72.2233 86.1091 74.8409 85.3827 77.6051 83.7868C80.5739 82.0727 82.5955 80.0183 83.6699 77.6235C84.7147 75.1776 84.5574 72.7773 83.1979 70.4227C82.1045 68.5287 80.6292 67.333 78.7722 66.8354C76.9152 66.3378 74.698 66.4577 72.1207 67.1949L66.7278 68.6705C64.7215 69.2146 63.0655 69.42 61.76 69.2865C60.4248 69.1018 59.4322 68.4464 58.782 67.3203C57.9841 65.9382 57.9886 64.4683 58.7954 62.9105C59.6534 61.3231 61.1062 59.9384 63.1537 58.7563C65.0476 57.6628 66.856 57.1306 68.579 57.1595C70.2724 57.1373 71.5358 57.6706 72.3691 58.7592L70.3197 60.3519C69.2954 59.1688 67.35 59.4047 64.4836 61.0597C63.0503 61.8872 62.0168 62.7569 61.383 63.6688C60.7709 64.4999 60.6717 65.2738 61.0855 65.9904C61.3514 66.4511 61.8694 66.6981 62.6393 66.7313C63.3797 66.7133 64.8594 66.4391 67.0784 65.9087L71.8127 64.711C74.9178 63.9421 77.6154 63.8861 79.9057 64.543C82.2472 65.1704 84.1124 66.687 85.5014 69.0928C87.2745 72.164 87.5266 75.2604 86.2575 78.3818C85.0101 81.4225 82.5692 83.992 78.9349 86.0902Z" fill="#191B28"/>
<defs>
<linearGradient id="paint0_linear_391_106" x1="50.6535" y1="38.9615" x2="112.69" y2="121.121" gradientUnits="userSpaceOnUse">
<stop stop-color="#918CF2"/>
<stop offset="0.163462" stop-color="#BCBCFF"/>
<stop offset="0.350962" stop-color="#E1EDFF"/>
<stop offset="0.442308" stop-color="#D6F0FE"/>
<stop offset="1" stop-color="#5BFD69"/>
</linearGradient>
</defs>
</svg>
