<svg width="125" height="125" viewBox="0 0 125 125" fill="none" xmlns="http://www.w3.org/2000/svg">
<circle cx="62.5" cy="62.5" r="62.5" fill="url(#paint0_linear_389_60)"/>
<path d="M77.8696 20.2602C77.9451 19.8603 77.9271 19.393 77.8157 18.8581C77.7063 18.3175 77.4694 17.7658 77.105 17.2032C76.7463 16.6427 76.3373 16.2182 75.8779 15.9298L76.0129 15.5651C76.5478 15.6314 77.0989 15.5917 77.6661 15.4461C78.2412 15.2969 78.7647 15.0562 79.2364 14.7239C79.7183 14.3822 80.085 14.0045 80.3368 13.5908L80.7015 13.7257C80.6466 14.0345 80.6405 14.3712 80.6833 14.7359C80.7282 15.0947 80.8209 15.4581 80.9612 15.8259C81.1095 16.1901 81.2964 16.539 81.5218 16.8725C81.8593 17.3659 82.2461 17.7525 82.6822 18.0323L82.5473 18.3971C82.2053 18.3429 81.8272 18.3511 81.4128 18.4216C81.0042 18.4942 80.6048 18.6131 80.2147 18.7781C79.8267 18.9373 79.4854 19.1303 79.191 19.357C78.7582 19.6905 78.4394 20.0366 78.2343 20.3951L77.8696 20.2602Z" fill="#191B28"/>
<path d="M70.1466 11.1731L69.2208 17.8432L68.4391 17.7347L65.5314 11.9931L65.4663 11.9841L64.7393 17.2211L63.9316 17.109L64.8575 10.439L65.6391 10.5475L68.5581 16.3038L68.6232 16.3129L69.3519 11.0628L70.1466 11.1731Z" fill="#191B28"/>
<path d="M56.7784 13.0363C56.6824 12.8241 56.5659 12.6373 56.4291 12.476C56.2943 12.3121 56.1394 12.177 55.9645 12.0705C55.7918 11.9638 55.6005 11.8888 55.3907 11.8457C55.1809 11.8026 54.955 11.7943 54.7132 11.8209C54.3166 11.8644 53.9672 12.0064 53.6651 12.2469C53.3629 12.4874 53.1378 12.8175 52.9899 13.2373C52.8419 13.6571 52.7997 14.1568 52.8634 14.7364C52.927 15.316 53.0777 15.7946 53.3154 16.172C53.5531 16.5495 53.8489 16.8224 54.2025 16.9909C54.5562 17.1593 54.9401 17.2208 55.3541 17.1754C55.7376 17.1333 56.0664 17.0145 56.3404 16.819C56.6164 16.6211 56.8196 16.3628 56.95 16.0442C57.0823 15.7231 57.126 15.3578 57.081 14.9481L57.3351 14.9731L55.3218 15.1942L55.2428 14.4752L57.7922 14.1952L57.8712 14.9143C57.9317 15.4655 57.8667 15.9578 57.6761 16.3911C57.4877 16.8242 57.1999 17.1756 56.8127 17.4452C56.4275 17.7125 55.969 17.8753 55.4374 17.9337C54.8447 17.9987 54.3086 17.9165 53.8291 17.6869C53.3518 17.457 52.9596 17.0987 52.6526 16.612C52.3477 16.125 52.1565 15.5286 52.079 14.8226C52.0208 14.2931 52.0394 13.8092 52.1346 13.3709C52.2317 12.9303 52.3946 12.5463 52.6233 12.2191C52.852 11.8918 53.1363 11.6291 53.4762 11.4308C53.8161 11.2325 54.2007 11.1097 54.6299 11.0626C54.9829 11.0238 55.3178 11.0411 55.6346 11.1144C55.9533 11.1852 56.2431 11.3044 56.5041 11.472C56.767 11.6372 56.9938 11.845 57.1845 12.0953C57.3749 12.3434 57.5185 12.6265 57.6152 12.9444L56.7784 13.0363Z" fill="#191B28"/>
<path d="M44.8366 13.4219L46.8924 19.8344L46.1159 20.0833L44.0601 13.6708L44.8366 13.4219Z" fill="#191B28"/>
<path d="M37.8027 18.7021C37.608 18.4288 37.3434 18.2788 37.0088 18.2521C36.6743 18.2255 36.3282 18.3101 35.9706 18.5059C35.7092 18.6492 35.5036 18.8168 35.3538 19.0088C35.206 19.1997 35.1178 19.3992 35.0893 19.6073C35.0627 19.8143 35.1011 20.012 35.2043 20.2004C35.2906 20.3581 35.4024 20.4731 35.5395 20.5454C35.6774 20.6148 35.8266 20.6543 35.9868 20.664C36.1461 20.6718 36.3042 20.6639 36.4612 20.6404C36.6173 20.6149 36.7579 20.5865 36.8833 20.5554L37.5716 20.3883C37.7475 20.3444 37.9492 20.3064 38.1765 20.2743C38.4058 20.2412 38.6407 20.2388 38.8811 20.267C39.1224 20.2923 39.3519 20.3691 39.5696 20.4973C39.7873 20.6255 39.972 20.828 40.1236 21.1048C40.2984 21.424 40.3728 21.7581 40.3466 22.1074C40.3224 22.4556 40.1923 22.793 39.9564 23.1197C39.7224 23.4453 39.3785 23.7324 38.9248 23.981C38.5018 24.2127 38.0982 24.345 37.7139 24.3781C37.3315 24.4101 36.9851 24.3525 36.6744 24.2052C36.3657 24.0569 36.1114 23.8275 35.9114 23.5172L36.6496 23.1128C36.791 23.3253 36.9671 23.4688 37.1779 23.5432C37.3895 23.6148 37.6157 23.6308 37.8566 23.5914C38.0983 23.5489 38.3364 23.4635 38.5709 23.335C38.8439 23.1855 39.0648 23.007 39.2336 22.7995C39.4014 22.5902 39.505 22.371 39.5445 22.1419C39.5829 21.9109 39.5431 21.6877 39.4252 21.4724C39.3178 21.2763 39.1756 21.1468 38.9986 21.0837C38.8216 21.0207 38.6226 20.9997 38.4017 21.0208C38.1808 21.0418 37.9507 21.0804 37.7115 21.1364L36.8711 21.3269C36.337 21.447 35.868 21.4577 35.464 21.3591C35.0601 21.2604 34.7491 21.0121 34.5311 20.6142C34.35 20.2835 34.2814 19.9461 34.3254 19.6021C34.3703 19.2551 34.5072 18.9302 34.7362 18.6273C34.966 18.3214 35.2694 18.0653 35.6462 17.8589C36.0268 17.6503 36.4026 17.5332 36.7734 17.5076C37.1432 17.48 37.4788 17.536 37.7804 17.6758C38.0838 17.8145 38.3219 18.0302 38.4948 18.323L37.8027 18.7021Z" fill="#191B28"/>
<path d="M29.4256 31.3383L24.9727 26.2868L28.0213 23.5994L28.4997 24.142L26.0627 26.2902L27.5673 27.9971L29.8464 25.988L30.3248 26.5307L28.0457 28.5397L29.559 30.2565L32.0354 28.0735L32.5138 28.6161L29.4256 31.3383Z" fill="#191B28"/>
<path d="M24.0852 38.5514L22.8838 40.247L17.3892 36.3539L18.6438 34.5832C19.0214 34.0502 19.4546 33.6721 19.9432 33.4487C20.4301 33.2242 20.9499 33.1559 21.5027 33.244C22.0537 33.3308 22.6136 33.5758 23.1824 33.9787C23.7548 34.3843 24.1753 34.8354 24.444 35.332C24.7109 35.8274 24.8171 36.3486 24.7626 36.8957C24.7064 37.4414 24.4805 37.9934 24.0852 38.5514ZM22.765 39.1635L23.4645 38.1761C23.7864 37.7218 23.9655 37.2832 24.0019 36.8603C24.0382 36.4375 23.9465 36.038 23.7267 35.6619C23.5068 35.2859 23.1733 34.9395 22.7262 34.6226C22.2826 34.3084 21.8494 34.1102 21.4266 34.0283C21.002 33.945 20.6018 33.9866 20.2261 34.1529C19.8486 34.3179 19.5077 34.6151 19.2036 35.0443L18.4508 36.1068L22.765 39.1635Z" fill="#191B28"/>
<path d="M11.4997 55.6805L10.7944 55.5195L11.9187 50.5957L12.6239 50.7567L12.1526 52.8211L18.0124 54.1591L17.8308 54.9541L11.971 53.6161L11.4997 55.6805Z" fill="#191B28"/>
<path d="M12.6902 62.428L12.7 63.2434C12.4661 63.2944 12.2611 63.3813 12.085 63.504C11.9089 63.6245 11.7616 63.771 11.6431 63.9434C11.5224 64.1136 11.4326 64.3022 11.3737 64.5089C11.3148 64.7157 11.2867 64.9309 11.2894 65.1545C11.2943 65.5622 11.4018 65.9303 11.6118 66.2587C11.8219 66.585 12.1286 66.8433 12.5321 67.0335C12.9355 67.2216 13.4288 67.3121 14.0118 67.305C14.5949 67.298 15.0858 67.1956 15.4846 66.9979C15.8833 66.7979 16.1837 66.5323 16.3858 66.2011C16.5878 65.8676 16.6864 65.497 16.6815 65.0893C16.6788 64.8658 16.6455 64.6513 16.5816 64.446C16.5178 64.2407 16.4245 64.0544 16.3019 63.8871C16.1771 63.7176 16.0252 63.5748 15.8463 63.4585C15.6651 63.3402 15.458 63.2583 15.2251 63.2128L15.2152 62.3975C15.5601 62.4547 15.8694 62.5627 16.1432 62.7217C16.4169 62.8806 16.6506 63.0794 16.8442 63.3182C17.0356 63.5571 17.1825 63.826 17.2847 64.1251C17.387 64.422 17.4402 64.7404 17.4443 65.0801C17.4512 65.6544 17.3171 66.1668 17.0419 66.6173C16.7668 67.0679 16.3721 67.4245 15.8579 67.6872C15.3437 67.9499 14.7315 68.0855 14.0214 68.0941C13.3112 68.1027 12.6959 67.9819 12.1755 67.7317C11.6551 67.4815 11.2519 67.1345 10.966 66.6907C10.68 66.247 10.5336 65.738 10.5266 65.1637C10.5225 64.8239 10.568 64.5044 10.663 64.2051C10.758 63.9037 10.8994 63.6312 11.0872 63.3878C11.2728 63.1444 11.5005 62.94 11.7703 62.7745C12.038 62.609 12.3446 62.4935 12.6902 62.428Z" fill="#191B28"/>
<path d="M12.4254 76.1654L12.2173 75.377L16.5283 74.2392C16.9734 74.1217 17.3985 74.1218 17.8036 74.2393C18.206 74.3553 18.558 74.5764 18.8594 74.9026C19.1588 75.2294 19.3759 75.6482 19.5107 76.159C19.6455 76.6698 19.6634 77.1412 19.5643 77.5732C19.463 78.0057 19.2663 78.3727 18.9741 78.6743C18.6792 78.9743 18.3092 79.1831 17.8641 79.3005L13.5531 80.4383L13.345 79.6499L17.5924 78.5289C17.9104 78.445 18.1749 78.3003 18.3859 78.095C18.5949 77.8902 18.7362 77.6398 18.81 77.3438C18.8811 77.0461 18.8688 76.7161 18.7731 76.3537C18.6775 75.9913 18.5253 75.6982 18.3166 75.4744C18.1058 75.2512 17.8593 75.1031 17.5771 75.0302C17.2922 74.9558 16.9907 74.9605 16.6728 75.0444L12.4254 76.1654Z" fill="#191B28"/>
<path d="M24.2316 86.6625L25.2378 88.4807L19.346 91.7415L18.2951 89.8427C17.9788 89.2712 17.8261 88.7168 17.837 88.1797C17.8459 87.6436 18.01 87.1456 18.3293 86.6858C18.6466 86.2271 19.1103 85.829 19.7202 85.4914C20.3339 85.1517 20.9228 84.9686 21.4868 84.9421C22.049 84.9166 22.5646 85.0471 23.0339 85.3336C23.5012 85.6211 23.9004 86.0641 24.2316 86.6625ZM24.2101 88.1175L23.6241 87.0588C23.3545 86.5717 23.0371 86.2199 22.6719 86.0037C22.3067 85.7874 21.907 85.6967 21.4728 85.7315C21.0386 85.7664 20.5818 85.9165 20.1023 86.1819C19.6266 86.4451 19.2602 86.7494 19.0028 87.0948C18.7436 87.4412 18.6073 87.8197 18.5941 88.2304C18.579 88.6422 18.6988 89.0782 18.9535 89.5385L19.584 90.6777L24.2101 88.1175Z" fill="#191B28"/>
<path d="M26.5707 95.1231C27.0892 94.6377 27.625 94.3119 28.1779 94.1456C28.7308 93.9793 29.2625 93.9635 29.773 94.0983C30.2834 94.233 30.7349 94.51 31.1274 94.9293C31.5198 95.3486 31.7665 95.8173 31.8672 96.3355C31.968 96.8537 31.9171 97.3832 31.7147 97.924C31.5123 98.4648 31.1518 98.9778 30.6333 99.4632C30.1148 99.9486 29.5791 100.274 29.0262 100.441C28.4732 100.607 27.9415 100.623 27.4311 100.488C26.9206 100.353 26.4692 100.076 26.0767 99.657C25.6842 99.2377 25.4376 98.769 25.3368 98.2508C25.2361 97.7325 25.2869 97.203 25.4893 96.6623C25.6917 96.1215 26.0522 95.6084 26.5707 95.1231ZM27.11 95.6992C26.6843 96.0977 26.3917 96.5052 26.2322 96.9218C26.0711 97.3367 26.0285 97.7354 26.1043 98.1179C26.1785 98.4988 26.355 98.838 26.6336 99.1357C26.9122 99.4334 27.2399 99.6326 27.6165 99.7334C27.9916 99.8327 28.3923 99.8165 28.8185 99.6847C29.2432 99.5514 29.6684 99.2855 30.094 98.8871C30.5197 98.4886 30.8131 98.0819 30.9741 97.6669C31.1337 97.2503 31.1763 96.8516 31.102 96.4708C31.0263 96.0883 30.8491 95.7482 30.5704 95.4506C30.2918 95.1529 29.9649 94.9545 29.5898 94.8552C29.2132 94.7544 28.8125 94.7706 28.3878 94.9039C27.9616 95.0356 27.5357 95.3007 27.11 95.6992Z" fill="#191B28"/>
<path d="M41.4517 102.768L37.7748 108.41L35.8686 107.168C35.4278 106.88 35.1151 106.569 34.9304 106.234C34.7446 105.901 34.6687 105.56 34.7027 105.211C34.7368 104.861 34.8622 104.52 35.0788 104.188C35.2954 103.856 35.5555 103.605 35.8589 103.437C36.1624 103.268 36.5025 103.202 36.8792 103.238C37.2548 103.276 37.6611 103.438 38.0981 103.723L39.6408 104.728L39.2386 105.345L37.718 104.354C37.4168 104.158 37.1457 104.044 36.9046 104.012C36.6617 103.979 36.4462 104.017 36.2583 104.125C36.0673 104.233 35.8982 104.4 35.7509 104.626C35.6037 104.852 35.5173 105.077 35.4916 105.301C35.466 105.525 35.516 105.743 35.6416 105.956C35.7661 106.171 35.9807 106.377 36.2856 106.576L37.4866 107.359L40.7685 102.323L41.4517 102.768ZM37.1444 103.572L37.4078 100.133L38.2012 100.65L37.9158 104.075L37.1444 103.572Z" fill="#191B28"/>
<path d="M51.0405 106.469L48.7284 112.794L46.5914 112.013C46.0952 111.831 45.7223 111.594 45.4728 111.299C45.2205 111.006 45.0735 110.681 45.0318 110.322C44.99 109.964 45.0373 109.599 45.1735 109.226C45.3098 108.853 45.5097 108.542 45.7735 108.293C46.0352 108.044 46.3566 107.886 46.7378 107.82C47.1183 107.756 47.5546 107.814 48.0466 107.994L49.5784 108.554L49.33 109.233L47.823 108.682C47.4833 108.558 47.189 108.517 46.9402 108.559C46.6915 108.601 46.4843 108.705 46.3186 108.871C46.1501 109.038 46.0196 109.248 45.927 109.501C45.8345 109.755 45.799 109.998 45.8207 110.233C45.8404 110.466 45.9335 110.678 46.1 110.867C46.2658 111.058 46.5206 111.217 46.8644 111.342L48.2109 111.835L50.2746 106.189L51.0405 106.469Z" fill="#191B28"/>
<path d="M67.3433 107.004C67.4328 107.401 67.6349 107.823 67.9497 108.269C68.2648 108.722 68.7014 109.134 69.2593 109.506C69.8111 109.878 70.3551 110.105 70.8912 110.187L70.9123 110.575C70.395 110.727 69.905 110.982 69.4423 111.341C68.9738 111.707 68.589 112.136 68.2881 112.628C67.9816 113.133 67.7951 113.625 67.7284 114.105L67.34 114.126C67.2678 113.821 67.1397 113.509 66.9555 113.192C66.7717 112.88 66.5424 112.583 66.2675 112.302C65.9867 112.026 65.6766 111.78 65.3372 111.564C64.8316 111.245 64.323 111.044 63.8116 110.96L63.7905 110.572C64.1259 110.486 64.4697 110.328 64.822 110.099C65.1681 109.87 65.4874 109.602 65.7799 109.296C66.0727 108.996 66.3092 108.683 66.4894 108.358C66.754 107.88 66.9092 107.436 66.9549 107.025L67.3433 107.004Z" fill="#191B28"/>
<path d="M78.9783 104.658L80.9547 104.016L83.035 110.421L80.971 111.091C80.3497 111.293 79.7765 111.338 79.2512 111.225C78.7266 111.114 78.2689 110.858 77.8783 110.457C77.4883 110.058 77.1856 109.528 76.9703 108.865C76.7536 108.197 76.6859 107.584 76.7671 107.026C76.849 106.469 77.0753 105.987 77.4458 105.581C77.817 105.177 78.3278 104.87 78.9783 104.658ZM80.4026 104.956L79.2518 105.33C78.7223 105.502 78.3166 105.747 78.0348 106.064C77.753 106.382 77.5879 106.757 77.5395 107.19C77.4911 107.622 77.5515 108.1 77.7208 108.621C77.8888 109.138 78.1178 109.555 78.4079 109.874C78.6986 110.194 79.0444 110.4 79.445 110.491C79.8464 110.584 80.2972 110.55 80.7976 110.387L82.036 109.985L80.4026 104.956Z" fill="#191B28"/>
<path d="M89.8772 98.7171L90.604 98.2668L92.0486 105.293L91.3331 105.737L85.6846 101.315L86.4113 100.864L91.1074 104.623L91.1521 104.596L89.8772 98.7171ZM90.9943 101.119L88.065 102.934L87.684 102.319L90.6133 100.505L90.9943 101.119Z" fill="#191B28"/>
<path d="M97.3021 91.7104L102.04 96.4961L99.1514 99.3553L98.6425 98.8412L100.951 96.5557L99.3504 94.9387L97.1913 97.0761L96.6824 96.562L98.8415 94.4246L97.2315 92.7982L94.8854 95.1207L94.3765 94.6067L97.3021 91.7104Z" fill="#191B28"/>
<path d="M102.675 83.7356L108.327 87.3964L107.884 88.0808L102.839 84.8133L101.137 87.4406L100.53 87.0473L102.675 83.7356Z" fill="#191B28"/>
<path d="M113.397 72.6599L106.78 71.4062L106.927 70.6308L112.805 68.0099L112.817 67.9452L107.623 66.9609L107.774 66.1597L114.391 67.4134L114.244 68.1888L108.35 70.8202L108.338 70.8848L113.546 71.8716L113.397 72.6599Z" fill="#191B28"/>
<path d="M112.186 59.208C112.402 59.1222 112.594 59.0148 112.762 58.8859C112.932 58.759 113.075 58.6108 113.189 58.4412C113.304 58.2738 113.388 58.0863 113.441 57.8788C113.494 57.6713 113.513 57.4461 113.498 57.2032C113.474 56.805 113.349 56.4493 113.123 56.1359C112.897 55.8226 112.578 55.582 112.166 55.4142C111.754 55.2463 111.257 55.1803 110.675 55.2162C110.093 55.2521 109.607 55.3797 109.219 55.5991C108.831 55.8185 108.544 56.1008 108.359 56.4461C108.174 56.7913 108.094 57.1718 108.119 57.5875C108.143 57.9725 108.246 58.3066 108.428 58.5897C108.613 58.8748 108.861 59.0901 109.173 59.2356C109.487 59.3831 109.85 59.4442 110.262 59.4189L110.224 59.6715L110.1 57.6499L110.822 57.6054L110.98 60.1652L110.258 60.2097C109.704 60.2439 109.216 60.1554 108.792 59.9443C108.368 59.7354 108.031 59.4312 107.78 59.0315C107.532 58.634 107.391 58.1683 107.358 57.6344C107.321 57.0393 107.429 56.5078 107.681 56.0398C107.934 55.574 108.31 55.1994 108.811 54.916C109.312 54.6347 109.917 54.4722 110.626 54.4285C111.158 54.3958 111.64 54.4374 112.073 54.5535C112.509 54.6716 112.885 54.8527 113.201 55.0967C113.517 55.3408 113.765 55.6373 113.947 55.9863C114.129 56.3353 114.233 56.7253 114.26 57.1563C114.282 57.5107 114.248 57.8444 114.16 58.1573C114.074 58.4723 113.941 58.7561 113.761 59.0088C113.584 59.2635 113.365 59.4801 113.106 59.6586C112.849 59.837 112.56 59.9668 112.237 60.0482L112.186 59.208Z" fill="#191B28"/>
<path d="M112.388 47.2736L105.88 49.0049L105.67 48.2169L112.178 46.4856L112.388 47.2736Z" fill="#191B28"/>
<path d="M107.454 39.9794C107.736 39.7982 107.899 39.5412 107.942 39.2083C107.984 38.8754 107.917 38.5257 107.738 38.159C107.608 37.8909 107.45 37.6775 107.266 37.5186C107.082 37.3617 106.887 37.2639 106.681 37.2254C106.475 37.1889 106.276 37.2176 106.083 37.3115C105.921 37.3901 105.801 37.4962 105.722 37.6296C105.646 37.7641 105.599 37.9111 105.582 38.0707C105.567 38.2294 105.567 38.3877 105.583 38.5457C105.601 38.7028 105.622 38.8447 105.647 38.9714L105.781 39.667C105.816 39.8448 105.844 40.0481 105.865 40.2767C105.887 40.5074 105.878 40.7421 105.838 40.9809C105.801 41.2206 105.714 41.4462 105.575 41.6574C105.437 41.8686 105.225 42.0433 104.941 42.1813C104.614 42.3405 104.277 42.3986 103.929 42.3555C103.583 42.3145 103.252 42.1682 102.937 41.9168C102.623 41.6673 102.353 41.3099 102.127 40.8447C101.916 40.411 101.803 40.0014 101.789 39.616C101.775 39.2325 101.85 38.8892 102.012 38.5861C102.175 38.285 102.416 38.042 102.736 37.8573L103.104 38.6142C102.885 38.7452 102.733 38.9141 102.648 39.121C102.567 39.3289 102.54 39.5541 102.568 39.7966C102.598 40.04 102.672 40.282 102.789 40.5225C102.925 40.8024 103.093 41.0317 103.292 41.2104C103.493 41.388 103.707 41.5021 103.934 41.5527C104.162 41.6022 104.387 41.5733 104.608 41.4659C104.809 41.3681 104.945 41.2324 105.017 41.0586C105.088 40.8849 105.119 40.6872 105.109 40.4655C105.098 40.2439 105.071 40.0122 105.027 39.7705L104.877 38.9218C104.783 38.3826 104.795 37.9136 104.913 37.5149C105.031 37.1162 105.294 36.8176 105.702 36.6191C106.041 36.4542 106.382 36.4021 106.723 36.4627C107.067 36.5243 107.385 36.6768 107.677 36.9201C107.971 37.1645 108.212 37.4799 108.4 37.8663C108.59 38.2566 108.689 38.6376 108.697 39.0092C108.706 39.3799 108.634 39.7124 108.48 40.0068C108.327 40.3032 108.1 40.5306 107.799 40.6891L107.454 39.9794Z" fill="#191B28"/>
<path d="M95.2393 31.0016L100.501 26.7988L103.037 29.9742L102.472 30.4257L100.444 27.8874L98.6667 29.3075L100.563 31.6814L99.9977 32.1328L98.1015 29.759L96.3134 31.1873L98.3737 33.7667L97.8085 34.2181L95.2393 31.0016Z" fill="#191B28"/>
<path d="M88.3017 25.3072L86.6685 24.0224L90.8319 18.7297L92.5376 20.0715C93.051 20.4753 93.407 20.9269 93.6055 21.4261C93.8054 21.9237 93.8475 22.4463 93.7318 22.9939C93.6175 23.5399 93.3449 24.0868 92.9139 24.6347C92.4802 25.186 92.0086 25.5834 91.4991 25.8269C90.991 26.0687 90.4651 26.1486 89.9215 26.0668C89.3792 25.9833 88.8393 25.7301 88.3017 25.3072ZM87.7566 23.958L88.7076 24.7062C89.1453 25.0504 89.5743 25.2513 89.9949 25.3088C90.4154 25.3663 90.819 25.2946 91.2056 25.0939C91.5921 24.8932 91.9548 24.5775 92.2937 24.1468C92.6298 23.7195 92.8493 23.2968 92.9524 22.8786C93.0568 22.4587 93.0354 22.057 92.8881 21.6734C92.7422 21.2881 92.4624 20.9328 92.049 20.6075L91.0256 19.8025L87.7566 23.958Z" fill="#191B28"/>
<path d="M62.1565 77.9406C59.27 77.9406 56.8886 77.3994 55.0124 76.3169C53.2084 75.2345 52.1981 73.8273 51.9816 72.0954L55.2289 71.6625C55.3011 72.6006 55.9505 73.3583 57.1773 73.9356C58.404 74.4407 60.0638 74.6933 62.1565 74.6933C66.7748 74.6933 69.084 73.683 69.084 71.6625C69.084 70.7965 68.615 70.0388 67.6769 69.3894C66.7388 68.6677 65.043 67.9461 62.5894 67.2245L57.069 65.6009C53.6774 64.5906 50.827 63.0752 48.5178 61.0546C46.2808 59.0341 45.1623 56.328 45.1623 52.9364C45.1623 50.3386 45.8839 48.0294 47.3272 46.0088C48.8426 43.9883 50.8992 42.4007 53.497 41.2461C56.0948 40.0194 58.9813 39.406 62.1565 39.406C66.7748 39.406 70.6355 40.5245 73.7385 42.7615C76.8415 44.9986 78.6094 47.8851 79.0424 51.421L75.7951 51.7457C75.5065 49.0036 74.0993 46.8026 71.5736 45.1429C69.1201 43.4832 65.9811 42.6533 62.1565 42.6533C58.1875 42.6533 54.9042 43.6275 52.3063 45.5759C49.7085 47.5242 48.4096 49.9778 48.4096 52.9364C48.4096 55.6064 49.2755 57.663 51.0074 59.1063C52.7393 60.5495 55.1928 61.7402 58.368 62.6783L64.3213 64.4102C69.6613 65.9977 72.3313 68.3791 72.3313 71.5542C72.3313 73.5748 71.3932 75.1623 69.517 76.3169C67.7129 77.3994 65.2594 77.9406 62.1565 77.9406ZM62.1565 85.0846C57.3938 85.0846 53.4248 83.9661 50.2497 81.7291C47.1467 79.4921 45.3788 76.6056 44.9458 73.0696L48.1931 72.6367C48.5539 75.3788 49.9971 77.6158 52.5228 79.3477C55.0485 81.0075 58.2597 81.8373 62.1565 81.8373C66.3419 81.8373 69.7335 80.8992 72.3313 79.023C74.9292 77.0746 76.2281 74.4407 76.2281 71.1213C76.2281 68.4513 75.3982 66.2864 73.7385 64.6267C72.0788 62.9669 69.6613 61.7402 66.4862 60.9464L59.8834 59.2145C57.4298 58.565 55.5536 57.7713 54.2547 56.8332C52.9558 55.8229 52.3063 54.524 52.3063 52.9364C52.3063 50.988 53.2084 49.4365 55.0124 48.282C56.8886 47.1274 59.27 46.5501 62.1565 46.5501C64.8265 46.5501 67.0635 47.0913 68.8675 48.1737C70.6716 49.184 71.6819 50.519 71.8984 52.1787L68.7593 52.6117C68.3985 50.7355 66.1975 49.7974 62.1565 49.7974C60.1359 49.7974 58.5123 50.086 57.2855 50.6633C56.1309 51.1684 55.5536 51.9261 55.5536 52.9364C55.5536 53.5859 55.9505 54.1632 56.7443 54.6683C57.5381 55.1013 59.27 55.7146 61.94 56.5084L67.6769 58.1321C71.4293 59.2145 74.3158 60.8021 76.3363 62.8948C78.429 64.9875 79.4754 67.7296 79.4754 71.1213C79.4754 75.451 77.8517 78.8787 74.6044 81.4044C71.4293 83.8579 67.28 85.0846 62.1565 85.0846Z" fill="#191B28"/>
<defs>
<linearGradient id="paint0_linear_389_60" x1="38.966" y1="24.6914" x2="114.706" y2="125" gradientUnits="userSpaceOnUse">
<stop stop-color="#A8A4FF"/>
<stop offset="1" stop-color="#6CBF73"/>
</linearGradient>
</defs>
</svg>
